<svg id="Layer_1" data-name="Layer 1" xmlns="http://www.w3.org/2000/svg" width="167.38" height="168.33" viewBox="0 0 167.38 168.33"><defs><style>.cls-1{fill:#fff;}</style></defs><title>Sound Icons</title><path class="cls-1" d="M100.69,4V22.38a63.5,63.5,0,0,1,0,123.16V164a81.5,81.5,0,0,0,0-160Z"/><path class="cls-1" d="M128.69,87a45.07,45.07,0,0,0-28-41.66V66a26.95,26.95,0,0,1,0,41.9v20.71A45.07,45.07,0,0,0,128.69,87Z"/><polygon class="cls-1" points="52.03 40.61 37.19 55.45 0 55.45 0 55.81 0 111.27 0 111.63 37.19 111.63 52.03 126.47 52.11 126.55 83.69 158.13 83.69 8.96 52.11 40.53 52.03 40.61"/></svg>