<svg id="Layer_1" data-name="Layer 1" xmlns="http://www.w3.org/2000/svg" width="167.38" height="168.33" viewBox="0 0 167.38 168.33"><defs><style>.cls-1{fill:#fff;}</style></defs><title>10th-street-media-sound-off</title><path class="cls-1" d="M167.38,156,12.08-.21,0,11.87l40.16,40.4-3,3H0v56.17H37.19L52,126.26l.07.08,31.58,31.58V96.07l17,17.1v15.24a45.56,45.56,0,0,0,9.7-5.48l12.08,12.16a63.14,63.14,0,0,1-21.78,10.24v18.43A81.27,81.27,0,0,0,135.28,148l20,20.14Z"/><path class="cls-1" d="M148.69,83.75a63.05,63.05,0,0,1-4.9,24.41l13.49,13.57a81.46,81.46,0,0,0-56.59-118V22.17A63.61,63.61,0,0,1,148.69,83.75Z"/><path class="cls-1" d="M128.69,86.75a45.07,45.07,0,0,0-28-41.66V64.8L128.3,92.58A45,45,0,0,0,128.69,86.75Z"/><polygon class="cls-1" points="83.69 8.74 64.27 28.16 83.69 47.69 83.69 8.74"/></svg>